<svg width="464" height="82" viewBox="0 0 464 82" fill="none" xmlns="http://www.w3.org/2000/svg">
<mask id="path-1-inside-1_5886_276" fill="white">
<path fill-rule="evenodd" clip-rule="evenodd" d="M253.729 5.88916C259.041 9.17691 264.849 12 271.096 12L428.531 12C438.776 12 443.898 12 447.985 13.5383C454.454 15.9728 459.558 21.0776 461.993 27.546C463.531 31.6331 463.531 36.7554 463.531 47C463.531 57.2446 463.531 62.3669 461.993 66.454C459.558 72.9224 454.454 78.0272 447.985 80.4617C443.898 82 438.776 82 428.531 82L35.4688 82C25.2241 82 20.1018 82 16.0147 80.4617C9.54639 78.0272 4.44153 72.9224 2.00701 66.454C0.46875 62.3669 0.46875 57.2446 0.46875 47C0.46875 36.7554 0.46875 31.6331 2.00701 27.546C4.44153 21.0776 9.54639 15.9728 16.0147 13.5383C20.1018 12 25.2241 12 35.4688 12L194.842 12C201.088 12 206.897 9.17691 212.208 5.88916C218.241 2.15528 225.353 0 232.969 0C240.584 0 247.697 2.15528 253.729 5.88916Z"/>
</mask>
<path fill-rule="evenodd" clip-rule="evenodd" d="M253.729 5.88916C259.041 9.17691 264.849 12 271.096 12L428.531 12C438.776 12 443.898 12 447.985 13.5383C454.454 15.9728 459.558 21.0776 461.993 27.546C463.531 31.6331 463.531 36.7554 463.531 47C463.531 57.2446 463.531 62.3669 461.993 66.454C459.558 72.9224 454.454 78.0272 447.985 80.4617C443.898 82 438.776 82 428.531 82L35.4688 82C25.2241 82 20.1018 82 16.0147 80.4617C9.54639 78.0272 4.44153 72.9224 2.00701 66.454C0.46875 62.3669 0.46875 57.2446 0.46875 47C0.46875 36.7554 0.46875 31.6331 2.00701 27.546C4.44153 21.0776 9.54639 15.9728 16.0147 13.5383C20.1018 12 25.2241 12 35.4688 12L194.842 12C201.088 12 206.897 9.17691 212.208 5.88916C218.241 2.15528 225.353 0 232.969 0C240.584 0 247.697 2.15528 253.729 5.88916Z" fill="url(#paint0_linear_5886_276)"/>
<path d="M447.985 13.5383L448.298 12.707L448.298 12.707L447.985 13.5383ZM461.993 27.546L461.162 27.8589L461.162 27.8589L461.993 27.546ZM461.993 66.454L461.162 66.1411L461.162 66.1411L461.993 66.454ZM447.985 80.4617L448.298 81.293L448.298 81.293L447.985 80.4617ZM16.0147 80.4617L16.3276 79.6304L16.3276 79.6304L16.0147 80.4617ZM2.00701 66.454L1.17571 66.7669L1.17571 66.7669L2.00701 66.454ZM2.00701 27.546L2.83831 27.8589L2.00701 27.546ZM16.0147 13.5383L15.7019 12.707L15.7019 12.707L16.0147 13.5383ZM212.208 5.88916L211.741 5.13391L212.208 5.88916ZM253.729 5.88916L253.262 6.64442L253.729 5.88916ZM271.096 12.8882L428.531 12.8882V11.1118L271.096 11.1118V12.8882ZM428.531 12.8882C433.665 12.8882 437.474 12.8886 440.512 13.0788C443.543 13.2685 445.746 13.6446 447.672 14.3696L448.298 12.707C446.137 11.8937 443.736 11.5006 440.623 11.3058C437.517 11.1114 433.642 11.1118 428.531 11.1118V12.8882ZM447.672 14.3696C453.901 16.714 458.817 21.6299 461.162 27.8589L462.824 27.2331C460.3 20.5254 455.006 15.2316 448.298 12.707L447.672 14.3696ZM461.162 27.8589C461.887 29.7851 462.263 31.9886 462.452 35.0194C462.643 38.0573 462.643 41.8666 462.643 47H464.419C464.419 41.8888 464.42 38.0146 464.225 34.9084C464.031 31.7951 463.638 29.3939 462.824 27.2331L461.162 27.8589ZM462.643 47C462.643 52.1334 462.643 55.9427 462.452 58.9806C462.263 62.0114 461.887 64.2149 461.162 66.1411L462.824 66.7669C463.638 64.6061 464.031 62.2049 464.225 59.0916C464.42 55.9854 464.419 52.1112 464.419 47H462.643ZM461.162 66.1411C458.817 72.3701 453.901 77.286 447.672 79.6304L448.298 81.293C455.006 78.7684 460.3 73.4746 462.824 66.7669L461.162 66.1411ZM447.672 79.6304C445.746 80.3554 443.543 80.7315 440.512 80.9212C437.474 81.1114 433.665 81.1118 428.531 81.1118V82.8882C433.642 82.8882 437.517 82.8886 440.623 82.6942C443.736 82.4993 446.137 82.1063 448.298 81.293L447.672 79.6304ZM428.531 81.1118L35.4688 81.1118V82.8882L428.531 82.8882V81.1118ZM35.4688 81.1118C30.3353 81.1118 26.526 81.1114 23.4881 80.9212C20.4574 80.7315 18.2539 80.3554 16.3276 79.6304L15.7019 81.293C17.8627 82.1063 20.2639 82.4993 23.3772 82.6942C26.4834 82.8886 30.3576 82.8882 35.4688 82.8882V81.1118ZM16.3276 79.6304C10.0987 77.286 5.18273 72.3701 2.83831 66.1411L1.17571 66.7669C3.70033 73.4746 8.99411 78.7684 15.7019 81.293L16.3276 79.6304ZM2.83831 66.1411C2.11332 64.2149 1.73723 62.0114 1.54753 58.9806C1.35739 55.9427 1.35698 52.1334 1.35698 47H-0.419483C-0.419483 52.1112 -0.419887 55.9854 -0.225466 59.0916C-0.0306 62.2049 0.362442 64.6061 1.17571 66.7669L2.83831 66.1411ZM1.35698 47C1.35698 41.8666 1.35739 38.0573 1.54753 35.0194C1.73723 31.9886 2.11332 29.7851 2.83831 27.8589L1.17571 27.2331C0.362442 29.3939 -0.0306 31.7951 -0.225466 34.9084C-0.419887 38.0146 -0.419483 41.8888 -0.419483 47H1.35698ZM2.83831 27.8589C5.18273 21.6299 10.0987 16.714 16.3276 14.3696L15.7019 12.707C8.99411 15.2316 3.70033 20.5254 1.17571 27.2331L2.83831 27.8589ZM16.3276 14.3696C18.2539 13.6446 20.4574 13.2685 23.4881 13.0788C26.526 12.8886 30.3353 12.8882 35.4688 12.8882V11.1118C30.3576 11.1118 26.4834 11.1114 23.3772 11.3058C20.2639 11.5006 17.8627 11.8937 15.7019 12.707L16.3276 14.3696ZM35.4688 12.8882L194.842 12.8882V11.1118L35.4688 11.1118V12.8882ZM212.676 6.64442C218.572 2.99495 225.523 0.888233 232.969 0.888233V-0.888233C225.183 -0.888233 217.91 1.31561 211.741 5.13391L212.676 6.64442ZM232.969 0.888233C240.415 0.888233 247.366 2.99495 253.262 6.64442L254.197 5.13391C248.028 1.31561 240.754 -0.888233 232.969 -0.888233V0.888233ZM194.842 12.8882C201.347 12.8882 207.334 9.95094 212.676 6.64442L211.741 5.13391C206.46 8.40288 200.829 11.1118 194.842 11.1118V12.8882ZM271.096 11.1118C265.108 11.1118 259.478 8.40288 254.197 5.13391L253.262 6.64442C258.603 9.95094 264.59 12.8882 271.096 12.8882V11.1118Z" fill="url(#paint1_linear_5886_276)" mask="url(#path-1-inside-1_5886_276)"/>
<defs>
<linearGradient id="paint0_linear_5886_276" x1="232.006" y1="-0.179813" x2="232.006" y2="202.323" gradientUnits="userSpaceOnUse">
<stop/>
<stop offset="1" stop-color="#171717"/>
</linearGradient>
<linearGradient id="paint1_linear_5886_276" x1="232" y1="0" x2="232" y2="82" gradientUnits="userSpaceOnUse">
<stop stop-color="#9363FD"/>
<stop offset="1" stop-color="#9F73FE" stop-opacity="0"/>
</linearGradient>
</defs>
</svg>
