<svg width="25" height="22" viewBox="0 0 25 22" fill="none" xmlns="http://www.w3.org/2000/svg">
<path d="M14.2381 19.8375C14.2381 19.8375 20.8378 13.2378 22.4877 11.5879C24.1376 9.93798 24.9625 5.81317 22.0752 2.92585C19.1878 0.0384938 15.0631 0.86345 13.4131 2.51337C11.7632 4.16327 3.10115 12.8254 2.27619 13.6503C1.45123 14.4753 0.213796 17.3626 2.68867 19.8375C5.16354 22.3123 8.05092 21.0749 8.87587 20.25C9.70082 19.425 18.7753 10.3505 19.6003 9.52551C20.4253 8.70056 20.8378 6.63818 19.6003 5.4007C18.3629 4.16327 16.3005 4.57575 15.4755 5.4007C14.6506 6.22571 7.63844 13.2378 7.63844 13.2378" stroke="#A8A8A8" stroke-linecap="round" stroke-linejoin="round"/>
</svg>
