<svg width="32" height="32" viewBox="0 0 32 32" fill="none" xmlns="http://www.w3.org/2000/svg">
<g opacity="0.6">
<g clip-path="url(#clip0_1829_9775)">
<mask id="mask0_1829_9775" style="mask-type:alpha" maskUnits="userSpaceOnUse" x="-8" y="0" width="47" height="33">
<rect x="-7.35938" y="0.00341797" width="45.8092" height="32.7208" rx="4.07556" fill="#0A17A7"/>
</mask>
<g mask="url(#mask0_1829_9775)">
<path d="M52.7689 -0.173584H-11.5801V34.1459H52.7689V-0.173584Z" fill="white"/>
<path d="M52.7689 -0.173584H-11.5801V2.46637H52.7689V-0.173584Z" fill="#BB133E"/>
<path d="M52.7689 5.10767H-11.5801V7.74762H52.7689V5.10767Z" fill="#BB133E"/>
<path d="M52.7689 10.3818H-11.5801V13.0218H52.7689V10.3818Z" fill="#BB133E"/>
<path d="M52.7689 15.6702H-11.5801V18.3101H52.7689V15.6702Z" fill="#BB133E"/>
<path d="M52.7689 20.948H-11.5801V23.588H52.7689V20.948Z" fill="#BB133E"/>
<path d="M52.7689 26.2256H-11.5801V28.8655H52.7689V26.2256Z" fill="#BB133E"/>
<path d="M52.7689 31.5034H-11.5801V34.1434H52.7689V31.5034Z" fill="#BB133E"/>
<path d="M14.1595 -0.173584H-11.5801V18.3061H14.1595V-0.173584Z" fill="#002664"/>
<path d="M-0.947154 1.31614L0.149658 1.31614L-0.737682 1.96943L-0.947154 1.31614Z" fill="white"/>
<path d="M-0.568215 1.44L-0.229281 2.49704L-1.11662 1.84376L-0.568215 1.44Z" fill="white"/>
<path d="M3.69712 1.84284L2.80978 2.49612L3.14872 1.43908L3.69712 1.84284Z" fill="white"/>
<path d="M3.31825 1.97239L2.43091 1.31911L3.52772 1.31911L3.31825 1.97239Z" fill="white"/>
<path d="M3.08398 1.64395L3.42292 0.586914L3.76185 1.64395H3.08398Z" fill="white"/>
<path d="M3.31847 1.31614L4.41528 1.31614L3.52794 1.96943L3.31847 1.31614Z" fill="white"/>
<path d="M3.69741 1.44L4.03634 2.49704L3.149 1.84376L3.69741 1.44Z" fill="white"/>
<path d="M7.96665 1.84284L7.07931 2.49612L7.41825 1.43908L7.96665 1.84284Z" fill="white"/>
<path d="M7.58778 1.97239L6.70044 1.31911L7.79725 1.31911L7.58778 1.97239Z" fill="white"/>
<path d="M7.35352 1.64395L7.69245 0.586914L8.03138 1.64395H7.35352Z" fill="white"/>
<path d="M7.588 1.31614L8.68481 1.31614L7.79747 1.96943L7.588 1.31614Z" fill="white"/>
<path d="M7.96694 1.44L8.30588 2.49704L7.41854 1.84376L7.96694 1.44Z" fill="white"/>
<path d="M12.2323 1.84284L11.3449 2.49612L11.6839 1.43908L12.2323 1.84284Z" fill="white"/>
<path d="M11.8534 1.97239L10.9661 1.31911L12.0629 1.31911L11.8534 1.97239Z" fill="white"/>
<path d="M11.6191 1.64395L11.9581 0.586914L12.297 1.64395H11.6191Z" fill="white"/>
<path d="M11.8536 1.31614L12.9504 1.31614L12.0631 1.96943L11.8536 1.31614Z" fill="white"/>
<path d="M12.2326 1.44L12.5715 2.49704L11.6842 1.84376L12.2326 1.44Z" fill="white"/>
<path d="M1.56431 3.70783L0.676969 4.36111L1.0159 3.30407L1.56431 3.70783Z" fill="white"/>
<path d="M1.18544 3.83763L0.298096 3.18434L1.39491 3.18434L1.18544 3.83763Z" fill="white"/>
<path d="M0.951172 3.50894L1.29011 2.4519L1.62904 3.50894H0.951172Z" fill="white"/>
<path d="M1.18566 3.18138L2.28247 3.18138L1.39513 3.83467L1.18566 3.18138Z" fill="white"/>
<path d="M1.5646 3.30499L1.90353 4.36203L1.01619 3.70875L1.5646 3.30499Z" fill="white"/>
<path d="M5.82993 3.70783L4.94259 4.36111L5.28153 3.30407L5.82993 3.70783Z" fill="white"/>
<path d="M5.45106 3.83763L4.56372 3.18434L5.66053 3.18434L5.45106 3.83763Z" fill="white"/>
<path d="M5.2168 3.50894L5.55573 2.4519L5.89466 3.50894H5.2168Z" fill="white"/>
<path d="M5.45128 3.18138L6.5481 3.18138L5.66076 3.83467L5.45128 3.18138Z" fill="white"/>
<path d="M5.83022 3.30499L6.16916 4.36203L5.28182 3.70875L5.83022 3.30499Z" fill="white"/>
<path d="M10.0975 3.70783L9.21017 4.36111L9.54911 3.30407L10.0975 3.70783Z" fill="white"/>
<path d="M9.71864 3.83763L8.8313 3.18434L9.92811 3.18434L9.71864 3.83763Z" fill="white"/>
<path d="M9.48438 3.50894L9.82331 2.4519L10.1622 3.50894H9.48438Z" fill="white"/>
<path d="M9.71886 3.18138L10.8157 3.18138L9.92833 3.83467L9.71886 3.18138Z" fill="white"/>
<path d="M10.0978 3.30499L10.4367 4.36203L9.54939 3.70875L10.0978 3.30499Z" fill="white"/>
<path d="M-0.947154 5.02757L0.149658 5.02757L-0.737682 5.68086L-0.947154 5.02757Z" fill="white"/>
<path d="M-0.568215 5.15119L-0.229281 6.20822L-1.11662 5.55494L-0.568215 5.15119Z" fill="white"/>
<path d="M3.69712 5.55402L2.80978 6.2073L3.14872 5.15026L3.69712 5.55402Z" fill="white"/>
<path d="M3.31825 5.68382L2.43091 5.03053L3.52772 5.03053L3.31825 5.68382Z" fill="white"/>
<path d="M3.08398 5.35513L3.42292 4.2981L3.76185 5.35513H3.08398Z" fill="white"/>
<path d="M3.31847 5.02757L4.41528 5.02757L3.52794 5.68086L3.31847 5.02757Z" fill="white"/>
<path d="M3.69741 5.15119L4.03634 6.20822L3.149 5.55494L3.69741 5.15119Z" fill="white"/>
<path d="M7.96665 5.55402L7.07931 6.2073L7.41825 5.15026L7.96665 5.55402Z" fill="white"/>
<path d="M7.58778 5.68382L6.70044 5.03053L7.79725 5.03053L7.58778 5.68382Z" fill="white"/>
<path d="M7.35352 5.35513L7.69245 4.2981L8.03138 5.35513H7.35352Z" fill="white"/>
<path d="M7.588 5.02757L8.68481 5.02757L7.79747 5.68086L7.588 5.02757Z" fill="white"/>
<path d="M7.96694 5.15119L8.30588 6.20822L7.41854 5.55494L7.96694 5.15119Z" fill="white"/>
<path d="M12.2323 5.55402L11.3449 6.2073L11.6839 5.15026L12.2323 5.55402Z" fill="white"/>
<path d="M11.8534 5.68382L10.9661 5.03053L12.0629 5.03053L11.8534 5.68382Z" fill="white"/>
<path d="M11.6191 5.35513L11.9581 4.2981L12.297 5.35513H11.6191Z" fill="white"/>
<path d="M11.8536 5.02757L12.9504 5.02757L12.0631 5.68086L11.8536 5.02757Z" fill="white"/>
<path d="M12.2326 5.15119L12.5715 6.20822L11.6842 5.55494L12.2326 5.15119Z" fill="white"/>
<path d="M1.56431 7.40875L0.676969 8.06204L1.0159 7.005L1.56431 7.40875Z" fill="white"/>
<path d="M1.18544 7.53856L0.298096 6.88527L1.39491 6.88527L1.18544 7.53856Z" fill="white"/>
<path d="M0.951172 7.20987L1.29011 6.15283L1.62904 7.20987H0.951172Z" fill="white"/>
<path d="M1.18566 6.88231L2.28247 6.88231L1.39513 7.53559L1.18566 6.88231Z" fill="white"/>
<path d="M1.5646 7.00592L1.90353 8.06296L1.01619 7.40967L1.5646 7.00592Z" fill="white"/>
<path d="M5.82993 7.40875L4.94259 8.06204L5.28153 7.005L5.82993 7.40875Z" fill="white"/>
<path d="M5.45106 7.53856L4.56372 6.88527L5.66053 6.88527L5.45106 7.53856Z" fill="white"/>
<path d="M5.2168 7.20987L5.55573 6.15283L5.89466 7.20987H5.2168Z" fill="white"/>
<path d="M5.45128 6.88231L6.5481 6.88231L5.66076 7.53559L5.45128 6.88231Z" fill="white"/>
<path d="M5.83022 7.00592L6.16916 8.06296L5.28182 7.40967L5.83022 7.00592Z" fill="white"/>
<path d="M10.0975 7.40875L9.21017 8.06204L9.54911 7.005L10.0975 7.40875Z" fill="white"/>
<path d="M9.71864 7.53856L8.8313 6.88527L9.92811 6.88527L9.71864 7.53856Z" fill="white"/>
<path d="M9.48438 7.20987L9.82331 6.15283L10.1622 7.20987H9.48438Z" fill="white"/>
<path d="M9.71886 6.88231L10.8157 6.88231L9.92833 7.53559L9.71886 6.88231Z" fill="white"/>
<path d="M10.0978 7.00592L10.4367 8.06296L9.54939 7.40967L10.0978 7.00592Z" fill="white"/>
<path d="M-0.947154 8.72606L0.149658 8.72606L-0.737682 9.37934L-0.947154 8.72606Z" fill="white"/>
<path d="M-0.568215 8.84967L-0.229281 9.90671L-1.11662 9.25342L-0.568215 8.84967Z" fill="white"/>
<path d="M3.69712 9.2525L2.80978 9.90579L3.14872 8.84875L3.69712 9.2525Z" fill="white"/>
<path d="M3.31825 9.38231L2.43091 8.72902L3.52772 8.72902L3.31825 9.38231Z" fill="white"/>
<path d="M3.08398 9.05362L3.42292 7.99658L3.76185 9.05362H3.08398Z" fill="white"/>
<path d="M3.31847 8.72606L4.41528 8.72606L3.52794 9.37934L3.31847 8.72606Z" fill="white"/>
<path d="M3.69741 8.84967L4.03634 9.90671L3.149 9.25342L3.69741 8.84967Z" fill="white"/>
<path d="M7.96665 9.2525L7.07931 9.90579L7.41825 8.84875L7.96665 9.2525Z" fill="white"/>
<path d="M7.58778 9.38231L6.70044 8.72902L7.79725 8.72902L7.58778 9.38231Z" fill="white"/>
<path d="M7.35352 9.05362L7.69245 7.99658L8.03138 9.05362H7.35352Z" fill="white"/>
<path d="M7.588 8.72606L8.68481 8.72606L7.79747 9.37934L7.588 8.72606Z" fill="white"/>
<path d="M7.96694 8.84967L8.30588 9.90671L7.41854 9.25342L7.96694 8.84967Z" fill="white"/>
<path d="M12.2323 9.2525L11.3449 9.90579L11.6839 8.84875L12.2323 9.2525Z" fill="white"/>
<path d="M11.8534 9.38231L10.9661 8.72902L12.0629 8.72902L11.8534 9.38231Z" fill="white"/>
<path d="M11.6191 9.05362L11.9581 7.99658L12.297 9.05362H11.6191Z" fill="white"/>
<path d="M11.8536 8.72606L12.9504 8.72606L12.0631 9.37934L11.8536 8.72606Z" fill="white"/>
<path d="M12.2326 8.84967L12.5715 9.90671L11.6842 9.25342L12.2326 8.84967Z" fill="white"/>
<path d="M1.56431 11.1107L0.676969 11.7639L1.0159 10.7069L1.56431 11.1107Z" fill="white"/>
<path d="M1.18544 11.2402L0.298096 10.5869L1.39491 10.5869L1.18544 11.2402Z" fill="white"/>
<path d="M0.951172 10.9118L1.29011 9.85474L1.62904 10.9118H0.951172Z" fill="white"/>
<path d="M1.18566 10.584L2.28247 10.584L1.39513 11.2373L1.18566 10.584Z" fill="white"/>
<path d="M1.5646 10.7078L1.90353 11.7649L1.01619 11.1116L1.5646 10.7078Z" fill="white"/>
<path d="M5.82993 11.1107L4.94259 11.7639L5.28153 10.7069L5.82993 11.1107Z" fill="white"/>
<path d="M5.45106 11.2402L4.56372 10.5869L5.66053 10.5869L5.45106 11.2402Z" fill="white"/>
<path d="M5.2168 10.9118L5.55573 9.85474L5.89466 10.9118H5.2168Z" fill="white"/>
<path d="M5.45128 10.584L6.5481 10.584L5.66076 11.2373L5.45128 10.584Z" fill="white"/>
<path d="M5.83022 10.7078L6.16916 11.7649L5.28182 11.1116L5.83022 10.7078Z" fill="white"/>
<path d="M10.0975 11.1107L9.21017 11.7639L9.54911 10.7069L10.0975 11.1107Z" fill="white"/>
<path d="M9.71864 11.2402L8.8313 10.5869L9.92811 10.5869L9.71864 11.2402Z" fill="white"/>
<path d="M9.48438 10.9118L9.82331 9.85474L10.1622 10.9118H9.48438Z" fill="white"/>
<path d="M9.71886 10.584L10.8157 10.584L9.92833 11.2373L9.71886 10.584Z" fill="white"/>
<path d="M10.0978 10.7078L10.4367 11.7649L9.54939 11.1116L10.0978 10.7078Z" fill="white"/>
<path d="M-0.947154 12.4448L0.149658 12.4448L-0.737682 13.0981L-0.947154 12.4448Z" fill="white"/>
<path d="M-0.568215 12.5684L-0.229281 13.6255L-1.11662 12.9722L-0.568215 12.5684Z" fill="white"/>
<path d="M3.69712 12.9713L2.80978 13.6245L3.14872 12.5675L3.69712 12.9713Z" fill="white"/>
<path d="M3.31825 13.1011L2.43091 12.4478L3.52772 12.4478L3.31825 13.1011Z" fill="white"/>
<path d="M3.08398 12.7724L3.42292 11.7153L3.76185 12.7724H3.08398Z" fill="white"/>
<path d="M3.31847 12.4448L4.41528 12.4448L3.52794 13.0981L3.31847 12.4448Z" fill="white"/>
<path d="M3.69741 12.5684L4.03634 13.6255L3.149 12.9722L3.69741 12.5684Z" fill="white"/>
<path d="M7.96665 12.9713L7.07931 13.6245L7.41825 12.5675L7.96665 12.9713Z" fill="white"/>
<path d="M7.58778 13.1011L6.70044 12.4478L7.79725 12.4478L7.58778 13.1011Z" fill="white"/>
<path d="M7.35352 12.7724L7.69245 11.7153L8.03138 12.7724H7.35352Z" fill="white"/>
<path d="M7.588 12.4448L8.68481 12.4448L7.79747 13.0981L7.588 12.4448Z" fill="white"/>
<path d="M7.96694 12.5684L8.30588 13.6255L7.41854 12.9722L7.96694 12.5684Z" fill="white"/>
<path d="M12.2323 12.9713L11.3449 13.6245L11.6839 12.5675L12.2323 12.9713Z" fill="white"/>
<path d="M11.8534 13.1011L10.9661 12.4478L12.0629 12.4478L11.8534 13.1011Z" fill="white"/>
<path d="M11.6191 12.7724L11.9581 11.7153L12.297 12.7724H11.6191Z" fill="white"/>
<path d="M11.8536 12.4448L12.9504 12.4448L12.0631 13.0981L11.8536 12.4448Z" fill="white"/>
<path d="M12.2326 12.5684L12.5715 13.6255L11.6842 12.9722L12.2326 12.5684Z" fill="white"/>
<path d="M1.56431 14.8184L0.676969 15.4717L1.0159 14.4147L1.56431 14.8184Z" fill="white"/>
<path d="M1.18544 14.9482L0.298096 14.2949L1.39491 14.2949L1.18544 14.9482Z" fill="white"/>
<path d="M0.951172 14.6195L1.29011 13.5625L1.62904 14.6195H0.951172Z" fill="white"/>
<path d="M1.18566 14.292L2.28247 14.292L1.39513 14.9453L1.18566 14.292Z" fill="white"/>
<path d="M1.5646 14.4156L1.90353 15.4726L1.01619 14.8193L1.5646 14.4156Z" fill="white"/>
<path d="M5.82993 14.8184L4.94259 15.4717L5.28153 14.4147L5.82993 14.8184Z" fill="white"/>
<path d="M5.45106 14.9482L4.56372 14.2949L5.66053 14.2949L5.45106 14.9482Z" fill="white"/>
<path d="M5.2168 14.6195L5.55573 13.5625L5.89466 14.6195H5.2168Z" fill="white"/>
<path d="M5.45128 14.292L6.5481 14.292L5.66076 14.9453L5.45128 14.292Z" fill="white"/>
<path d="M5.83022 14.4156L6.16916 15.4726L5.28182 14.8193L5.83022 14.4156Z" fill="white"/>
<path d="M10.0975 14.8184L9.21017 15.4717L9.54911 14.4147L10.0975 14.8184Z" fill="white"/>
<path d="M9.71864 14.9482L8.8313 14.2949L9.92811 14.2949L9.71864 14.9482Z" fill="white"/>
<path d="M9.48438 14.6195L9.82331 13.5625L10.1622 14.6195H9.48438Z" fill="white"/>
<path d="M9.71886 14.292L10.8157 14.292L9.92833 14.9453L9.71886 14.292Z" fill="white"/>
<path d="M10.0978 14.4156L10.4367 15.4726L9.54939 14.8193L10.0978 14.4156Z" fill="white"/>
<path d="M-0.949107 16.1501L0.147705 16.1501L-0.739635 16.8034L-0.949107 16.1501Z" fill="white"/>
<path d="M-0.570168 16.2737L-0.231234 17.3308L-1.11857 16.6775L-0.570168 16.2737Z" fill="white"/>
<path d="M3.69712 16.6766L2.80978 17.3299L3.14872 16.2728L3.69712 16.6766Z" fill="white"/>
<path d="M3.31825 16.8064L2.43091 16.1531L3.52772 16.1531L3.31825 16.8064Z" fill="white"/>
<path d="M3.08398 16.4777L3.42292 15.4207L3.76185 16.4777H3.08398Z" fill="white"/>
<path d="M3.31847 16.1501L4.41528 16.1501L3.52794 16.8034L3.31847 16.1501Z" fill="white"/>
<path d="M3.69741 16.2737L4.03634 17.3308L3.149 16.6775L3.69741 16.2737Z" fill="white"/>
<path d="M7.96665 16.6766L7.07931 17.3299L7.41825 16.2728L7.96665 16.6766Z" fill="white"/>
<path d="M7.58778 16.8064L6.70044 16.1531L7.79725 16.1531L7.58778 16.8064Z" fill="white"/>
<path d="M7.35352 16.4777L7.69245 15.4207L8.03138 16.4777H7.35352Z" fill="white"/>
<path d="M7.588 16.1501L8.68481 16.1501L7.79747 16.8034L7.588 16.1501Z" fill="white"/>
<path d="M7.96694 16.2737L8.30588 17.3308L7.41854 16.6775L7.96694 16.2737Z" fill="white"/>
<path d="M12.2323 16.6766L11.3449 17.3299L11.6839 16.2728L12.2323 16.6766Z" fill="white"/>
<path d="M11.8534 16.8064L10.9661 16.1531L12.0629 16.1531L11.8534 16.8064Z" fill="white"/>
<path d="M11.6191 16.4777L11.9581 15.4207L12.297 16.4777H11.6191Z" fill="white"/>
<path d="M11.8536 16.1501L12.9504 16.1501L12.0631 16.8034L11.8536 16.1501Z" fill="white"/>
<path d="M12.2326 16.2737L12.5715 17.3308L11.6842 16.6775L12.2326 16.2737Z" fill="white"/>
</g>
<rect x="-6.22266" width="44.4444" height="32" rx="1.77778" fill="white"/>
<mask id="mask1_1829_9775" style="mask-type:luminance" maskUnits="userSpaceOnUse" x="-7" y="0" width="46" height="32">
<rect x="-6.22266" width="44.4444" height="32" rx="1.77778" fill="white"/>
</mask>
<g mask="url(#mask1_1829_9775)">
<path fill-rule="evenodd" clip-rule="evenodd" d="M-6.22266 17.0667H38.2218V0H-6.22266V17.0667Z" fill="#156DD1"/>
<path fill-rule="evenodd" clip-rule="evenodd" d="M-6.22266 32H38.2218V17.0667H-6.22266V32Z" fill="#FFD948"/>
</g>
</g>
</g>
<defs>
<clipPath id="clip0_1829_9775">
<rect width="32" height="32" rx="16" fill="white"/>
</clipPath>
</defs>
</svg>
