<svg width="123" height="48" viewBox="0 0 123 48" fill="none" xmlns="http://www.w3.org/2000/svg">
<g clip-path="url(#clip0_5910_2246)">
<path fill-rule="evenodd" clip-rule="evenodd" d="M13.5039 17.416L42.6294 40.8085H0.468262L13.5039 17.416Z" fill="white"/>
<path fill-rule="evenodd" clip-rule="evenodd" d="M12.7412 7.35672L22.7171 0.945312C30.1043 14.1741 37.4756 27.3748 44.8311 40.5476L12.7412 7.35672Z" fill="white"/>
<path fill-rule="evenodd" clip-rule="evenodd" d="M15.8934 13.1709L42.6294 40.8087L13.5039 17.4162L15.8934 13.1709Z" fill="#ACACAC"/>
<path fill-rule="evenodd" clip-rule="evenodd" d="M105.098 15.4095V27.1565H102.611V12.8635H102.981C107.067 12.8635 111.156 12.8635 115.243 12.8635C116.965 12.8635 118.381 12.1588 119.343 10.648C119.724 10.0466 119.96 9.35984 120.033 8.64487C120.105 7.9299 120.012 7.20735 119.76 6.53724C119.508 5.86713 119.106 5.26883 118.585 4.79203C118.065 4.31524 117.442 3.97372 116.768 3.79586C116.253 3.65554 115.722 3.58248 115.189 3.57838C111.482 3.55808 107.771 3.57838 104.064 3.56388C103.968 3.55195 103.872 3.57426 103.791 3.62706C103.71 3.67987 103.649 3.75994 103.618 3.85385C99.8988 11.517 96.1762 19.1792 92.4499 26.8404L92.2704 27.1449L78.9038 1.01497H79.2488C79.9387 1.01497 80.6314 1.06717 81.3157 1.01497C81.8767 0.956977 82.1178 1.20346 82.359 1.68482C85.3151 7.6023 88.2832 13.5169 91.2635 19.4286C91.5945 20.0839 91.9226 20.7422 92.2788 21.4584C92.3629 21.2989 92.4274 21.1945 92.4779 21.0814C94.2364 17.361 96.0061 13.6435 97.7421 9.91149C99.0659 7.06681 100.35 4.19893 101.64 1.33685C101.673 1.23013 101.741 1.13856 101.832 1.07775C101.923 1.01694 102.032 0.990657 102.14 1.00337C106.692 1.01497 111.246 1.01497 115.801 1.00337C116.811 0.994966 117.814 1.18284 118.757 1.55723C119.579 1.8657 120.317 2.37591 120.908 3.04411C121.498 3.7123 121.922 4.51853 122.145 5.39364C122.704 7.19838 122.659 9.14516 122.018 10.9206C121.177 13.1418 119.654 14.6149 117.411 15.221C116.859 15.3545 116.294 15.415 115.728 15.4008C112.309 15.4182 108.893 15.4008 105.474 15.4008L105.098 15.4095Z" fill="white"/>
<path fill-rule="evenodd" clip-rule="evenodd" d="M68.0247 4.97318V5.28635C68.0247 9.30254 68.0247 13.3158 68.0247 17.332C68.0541 18.587 67.925 19.8407 67.6405 21.0611C66.8833 23.9841 65.1164 25.898 62.2866 26.6896C59.841 27.3739 57.3534 27.4638 54.933 26.6896C52.0724 25.7617 50.3531 23.6825 49.7838 20.6175C49.5783 19.4115 49.4844 18.1881 49.5034 16.9637C49.5034 11.7944 49.5034 6.62508 49.5034 1.45575V1.03818H51.9882V1.42675C51.9882 7.05038 51.9929 12.6711 52.0022 18.2889C51.9579 19.7412 52.3932 21.1659 53.2363 22.3283C53.9842 23.3321 55.0424 24.0404 56.2343 24.335C58.0846 24.8512 60.0442 24.762 61.8435 24.0798C63.9834 23.265 65.136 21.5918 65.4417 19.2836C65.5085 18.716 65.5376 18.1444 65.5287 17.5727C65.5287 12.2023 65.5287 6.83193 65.5287 1.46155V1.03528C65.6465 1.03528 65.739 1.01788 65.8316 1.01788C66.9113 1.01788 67.9883 1.01788 69.0652 1.01788C69.1597 1.00625 69.2552 1.02878 69.3354 1.08163C69.4157 1.13448 69.4758 1.21441 69.5056 1.30786C72.3849 7.43025 75.2717 13.5497 78.1661 19.6663C78.8504 21.1162 79.5319 22.5661 80.2246 24.016C80.2699 24.0966 80.2938 24.1881 80.2938 24.2813C80.2938 24.3745 80.2699 24.4661 80.2246 24.5467C79.8348 25.3412 79.459 26.1473 79.0775 26.9477C79.0523 26.997 79.0215 27.0463 78.9626 27.1536L68.092 4.97028L68.0247 4.97318Z" fill="white"/>
<path d="M50.5718 32.9329H53.6568C56.0743 32.9329 57.7038 34.5393 57.7038 36.836C57.7038 39.1326 56.0743 40.742 53.6568 40.742H50.5718V32.9329ZM53.6035 40.017C55.6088 40.017 56.9045 38.7005 56.9045 36.8273C56.9045 34.954 55.6088 33.6375 53.6035 33.6375H51.3599V40.017H53.6035Z" fill="white"/>
<path d="M64.3369 32.9329H65.1362V40.742H64.3369V32.9329Z" fill="white"/>
<path d="M77.7709 36.8273H78.5282V39.814C77.7506 40.482 76.765 40.8354 75.7545 40.8087C73.4575 40.8087 71.772 39.1239 71.772 36.836C71.772 34.5481 73.4547 32.8633 75.7657 32.8633C76.9099 32.8633 77.9028 33.2432 78.5702 33.9913L78.0823 34.5075C77.783 34.2024 77.4267 33.9638 77.0351 33.8062C76.6435 33.6486 76.2249 33.5754 75.8049 33.5911C73.9399 33.5911 72.5685 34.9656 72.5685 36.8273C72.5685 38.6889 73.9399 40.0634 75.7937 40.0634C76.4984 40.0874 77.1917 39.8759 77.7709 39.4603V36.8273Z" fill="white"/>
<path d="M85.646 32.9329H86.4425V40.742H85.646V32.9329Z" fill="white"/>
<path d="M95.2262 33.6374H92.5703V32.9241H98.6787V33.6374H96.0227V40.7419H95.2262V33.6374Z" fill="white"/>
<path d="M109.165 38.6541H104.958L104.049 40.742H103.208L106.66 32.9329H107.449L110.901 40.742H110.06L109.165 38.6541ZM108.884 37.9843L107.073 33.7912L105.247 37.9872L108.884 37.9843Z" fill="white"/>
<path d="M117.018 32.9329H117.817V40.017H122.047V40.7333H117.018V32.9329Z" fill="white"/>
<path d="M0.468262 43.2559H2.41463V43.6618H0.93382V44.9029H2.29965V45.3002H0.93382V46.9908H0.468262V43.2559Z" fill="#F8F9F9"/>
<path d="M4.15628 45.312V45.6716H2.83252V45.312H4.15628Z" fill="#F8F9F9"/>
<path d="M4.64172 46.492C4.82861 46.6134 5.04368 46.6806 5.26433 46.6863C5.60649 46.6863 5.76915 46.5094 5.76915 46.2861C5.76915 46.0629 5.63454 45.9266 5.28677 45.7932C4.81841 45.6221 4.59965 45.3553 4.59965 45.0334C4.59965 44.6014 4.939 44.2476 5.49431 44.2476C5.71754 44.2459 5.93753 44.3028 6.13375 44.4129L6.01596 44.7696C5.85569 44.6676 5.67127 44.6134 5.48309 44.613C5.20263 44.613 5.05119 44.7812 5.05119 44.9783C5.05119 45.1755 5.20544 45.3002 5.54198 45.4336C5.99352 45.6105 6.2235 45.8425 6.2235 46.2426C6.2235 46.7153 5.87012 47.0459 5.25311 47.0459C4.99896 47.0503 4.74793 46.9874 4.52393 46.8632L4.64172 46.492Z" fill="#F8F9F9"/>
<path d="M7.29186 45.5265C7.35636 45.4337 7.44611 45.3177 7.52183 45.2365L8.28467 44.3086H8.84559L7.85277 45.4105L8.99423 46.9909H8.43051L7.53585 45.7063L7.29466 45.9818V46.9909H6.8291V43.0559H7.29186V45.5265Z" fill="#F8F9F9"/>
<path d="M10.8762 46.9909L10.8369 46.6516C10.745 46.7788 10.625 46.8815 10.4869 46.9511C10.3489 47.0207 10.1968 47.0552 10.0432 47.0518C9.94137 47.0594 9.83909 47.0451 9.74282 47.0099C9.64656 46.9746 9.55838 46.9192 9.48384 46.847C9.4093 46.7748 9.35 46.6875 9.30968 46.5905C9.26936 46.4935 9.24888 46.3889 9.24953 46.2833C9.24953 45.6338 9.81044 45.28 10.8089 45.2829V45.2365C10.8191 45.1535 10.811 45.0692 10.7852 44.9899C10.7593 44.9106 10.7165 44.8384 10.6598 44.7787C10.6031 44.719 10.5341 44.6733 10.4579 44.6451C10.3817 44.6169 10.3004 44.607 10.2199 44.6159C9.98108 44.617 9.74717 44.6862 9.54401 44.816L9.43743 44.4942C9.69167 44.337 9.98262 44.2548 10.2788 44.2564C11.0725 44.2564 11.2632 44.816 11.2632 45.3525V46.3558C11.2596 46.5713 11.2747 46.7868 11.3081 46.9996L10.8762 46.9909ZM10.8061 45.6222C10.29 45.6222 9.70667 45.7063 9.70667 46.2253C9.70252 46.287 9.7112 46.3488 9.73214 46.4067C9.75308 46.4646 9.78579 46.5172 9.82805 46.5609C9.87032 46.6046 9.92117 46.6384 9.97715 46.6601C10.0331 46.6817 10.093 46.6907 10.1526 46.6864C10.2895 46.6898 10.4239 46.6481 10.5363 46.5673C10.6488 46.4865 10.7334 46.3708 10.778 46.2369C10.7955 46.1866 10.8049 46.1337 10.8061 46.0803V45.6164V45.6222Z" fill="#F8F9F9"/>
<path d="M12.5671 43.5374V44.3087H13.243V44.6799H12.5671V46.1298C12.5671 46.4632 12.6596 46.6517 12.9204 46.6517C13.015 46.6536 13.1094 46.6419 13.2009 46.6169L13.2233 46.9823C13.0894 47.0317 12.9476 47.0543 12.8054 47.049C12.711 47.0547 12.6166 47.0393 12.5285 47.0037C12.4404 46.9682 12.3607 46.9134 12.295 46.8431C12.1514 46.6432 12.0863 46.3946 12.1127 46.1472V44.6973H11.7061V44.3087H12.1071V43.6649L12.5671 43.5374Z" fill="#F8F9F9"/>
<path d="M14.3423 43.5371V44.3085H15.0182V44.6796H14.3423V46.1295C14.3423 46.463 14.4349 46.6515 14.6957 46.6515C14.7903 46.6538 14.8848 46.642 14.9762 46.6167L14.9986 46.982C14.8646 47.0315 14.7228 47.0541 14.5807 47.0487C14.4863 47.0541 14.392 47.0385 14.3039 47.003C14.2159 46.9675 14.1362 46.9129 14.0703 46.8429C13.929 46.642 13.865 46.3939 13.8908 46.1469V44.697H13.4785V44.3085H13.8824V43.6647L14.3423 43.5371Z" fill="#F8F9F9"/>
<path d="M16.8076 46.6486C16.9341 46.6561 17.061 46.6503 17.1863 46.6312C17.4585 46.5968 17.7135 46.4752 17.9155 46.2832C18.1722 46.0281 18.3357 45.689 18.3782 45.3234H18.3614C18.2623 45.4489 18.1367 45.5492 17.9942 45.6165C17.8518 45.6839 17.6962 45.7165 17.5396 45.712C17.4006 45.715 17.2624 45.6883 17.1337 45.6335C17.0051 45.5787 16.8888 45.497 16.7922 45.3935C16.6955 45.29 16.6206 45.167 16.5721 45.0322C16.5236 44.8974 16.5026 44.7537 16.5104 44.6101C16.5047 44.4443 16.5313 44.2791 16.5887 44.1242C16.646 43.9693 16.7328 43.8279 16.8439 43.7084C16.9551 43.5888 17.0884 43.4936 17.2358 43.4283C17.3833 43.363 17.5419 43.329 17.7023 43.3284C18.4147 43.3284 18.855 43.9286 18.855 44.8479C18.8709 45.157 18.8259 45.4662 18.7228 45.7568C18.6196 46.0475 18.4604 46.3134 18.2548 46.5384C17.9754 46.8078 17.6193 46.9766 17.2395 47.0198C17.0969 47.0449 16.9522 47.0547 16.8076 47.0488V46.6486ZM16.9787 44.5753C16.9689 44.6722 16.9789 44.7702 17.0081 44.8628C17.0374 44.9554 17.0852 45.0407 17.1484 45.1129C17.2117 45.1851 17.289 45.2428 17.3752 45.2821C17.4615 45.3213 17.5548 45.3413 17.649 45.3408C17.7853 45.3448 17.9203 45.3122 18.0407 45.2461C18.1611 45.18 18.2629 45.0828 18.3361 44.9638C18.3655 44.9099 18.38 44.8488 18.3782 44.787C18.3782 44.1693 18.1594 43.6995 17.6658 43.6995C17.262 43.6995 16.9787 44.0765 16.9787 44.5753Z" fill="#F8F9F9"/>
<path d="M19.2842 46.9908V46.7008L19.6516 46.3296C20.5434 45.4597 20.9445 44.9899 20.9501 44.4448C20.9597 44.3489 20.9482 44.2521 20.9165 44.1614C20.8849 44.0708 20.8339 43.9887 20.7673 43.9213C20.7007 43.8538 20.6203 43.8028 20.532 43.7719C20.4437 43.7411 20.3499 43.7312 20.2574 43.743C19.9841 43.7539 19.7228 43.8614 19.517 44.0475L19.3683 43.7024C19.6458 43.4648 19.9952 43.3354 20.3555 43.3371C20.4941 43.3242 20.6337 43.342 20.765 43.3893C20.8964 43.4366 21.0165 43.5123 21.1173 43.6113C21.2182 43.7104 21.2974 43.8305 21.3499 43.9637C21.4023 44.0969 21.4266 44.2402 21.4213 44.3839C21.4213 45.0508 20.9557 45.5873 20.2209 46.318L19.9404 46.5848H21.5026V46.9908H19.2842Z" fill="#F8F9F9"/>
<path d="M24.3465 45.1523C24.3465 46.376 23.909 47.0517 23.1377 47.0517C22.4562 47.0517 21.9963 46.3934 21.985 45.2016C21.9738 44.0098 22.4899 43.3284 23.1966 43.3284C23.9034 43.3284 24.3465 44.004 24.3465 45.1523ZM22.4562 45.2074C22.4562 46.1441 22.7367 46.6747 23.163 46.6747C23.6453 46.6747 23.8753 46.0948 23.8753 45.1726C23.8753 44.2505 23.6566 43.7053 23.1686 43.7053C22.7563 43.7053 22.4562 44.2273 22.4562 45.2074Z" fill="#F8F9F9"/>
<path d="M25.802 43.8447L25.1962 44.181L25.1064 43.8099L25.8665 43.3894H26.2703V46.9909H25.802V43.8447Z" fill="#F8F9F9"/>
<path d="M29.5207 43.7344C29.4016 43.7291 29.2823 43.7359 29.1645 43.7547C28.854 43.7999 28.5667 43.9502 28.3475 44.1821C28.1283 44.4139 27.9896 44.7144 27.953 45.0364H27.9698C28.1103 44.8536 28.3035 44.7219 28.5213 44.6603C28.7392 44.5987 28.9703 44.6105 29.1812 44.6938C29.3922 44.7772 29.572 44.9279 29.6945 45.124C29.8171 45.3201 29.876 45.5514 29.8629 45.7845C29.8712 45.9474 29.8475 46.1103 29.7931 46.2633C29.7387 46.4164 29.6548 46.5564 29.5465 46.6749C29.4382 46.7934 29.3077 46.8879 29.163 46.9527C29.0182 47.0175 28.8623 47.0512 28.7046 47.0517C27.9586 47.0517 27.4706 46.4544 27.4706 45.5178C27.4605 45.2201 27.5076 44.9233 27.6092 44.6446C27.7108 44.3658 27.8648 44.1107 28.0623 43.8939C28.3684 43.5923 28.7633 43.4054 29.1842 43.3632C29.2982 43.3441 29.4136 43.3344 29.5291 43.3342V43.7344H29.5207ZM29.3861 45.8106C29.3861 45.2945 29.1056 44.9842 28.6681 44.9842C28.527 44.9871 28.3893 45.03 28.2701 45.1083C28.151 45.1865 28.0548 45.297 27.9922 45.4279C27.9549 45.4937 27.9364 45.5691 27.9389 45.6454C27.9389 46.2253 28.2194 46.6748 28.7046 46.6748C29.1112 46.6864 29.3861 46.3268 29.3861 45.8164V45.8106Z" fill="#F8F9F9"/>
<path d="M30.3932 46.4313C30.6272 46.5739 30.8928 46.6518 31.1644 46.6574C31.7702 46.6574 31.9581 46.2602 31.9525 45.9615C31.9525 45.4569 31.5066 45.2394 31.0522 45.2394H30.7886V44.8741H31.0522C31.3944 44.8741 31.8291 44.6914 31.8291 44.2651C31.8291 43.9751 31.6524 43.7229 31.2177 43.7229C30.9684 43.7303 30.7266 43.813 30.5222 43.9606L30.396 43.6069C30.666 43.4204 30.9828 43.3197 31.3075 43.3169C31.9946 43.3169 32.3059 43.7374 32.3059 44.1868C32.3021 44.3812 32.2375 44.5691 32.1217 44.7223C32.0059 44.8755 31.8452 44.9857 31.6636 45.0365C31.879 45.0685 32.076 45.1796 32.2186 45.3494C32.3613 45.5193 32.44 45.7365 32.4405 45.9615C32.4405 46.5414 32.0058 47.0431 31.17 47.0431C30.8524 47.0474 30.5395 46.9633 30.2642 46.7995L30.3932 46.4313Z" fill="#F8F9F9"/>
<path d="M34.272 45.312V45.6716H32.9482V45.312H34.272Z" fill="#F8F9F9"/>
<path d="M36.6612 43.7344C36.543 43.7292 36.4247 43.736 36.3078 43.7547C35.9973 43.7999 35.71 43.9502 35.4908 44.1821C35.2716 44.4139 35.1329 44.7144 35.0963 45.0364H35.1131C35.2536 44.8536 35.4468 44.7219 35.6646 44.6603C35.8825 44.5987 36.1136 44.6105 36.3245 44.6938C36.5355 44.7772 36.7153 44.9279 36.8378 45.124C36.9604 45.3201 37.0193 45.5514 37.0062 45.7845C37.0145 45.9474 36.9908 46.1103 36.9364 46.2633C36.882 46.4164 36.7981 46.5564 36.6898 46.6749C36.5815 46.7934 36.451 46.8879 36.3063 46.9527C36.1615 47.0175 36.0056 47.0512 35.8479 47.0517C35.1019 47.0517 34.6167 46.4544 34.6167 45.5178C34.6062 45.2203 34.6529 44.9236 34.754 44.6449C34.8551 44.3662 35.0086 44.1109 35.2056 43.8939C35.5117 43.5923 35.9066 43.4054 36.3275 43.3632C36.4406 43.3443 36.555 43.3346 36.6696 43.3342V43.7344H36.6612ZM36.5294 45.8106C36.5294 45.2945 36.2489 44.9842 35.8114 44.9842C35.6703 44.9874 35.5328 45.0305 35.4137 45.1087C35.2946 45.1869 35.1984 45.2972 35.1355 45.4279C35.0982 45.4937 35.0797 45.5691 35.0822 45.6454C35.0822 46.2253 35.3627 46.6748 35.8479 46.6748C36.2545 46.6864 36.5294 46.3268 36.5294 45.8164V45.8106Z" fill="#F8F9F9"/>
<path d="M38.448 43.8447L37.8422 44.181L37.7524 43.8099L38.5125 43.3894H38.9135V46.9909H38.4592V43.8447H38.448Z" fill="#F8F9F9"/>
<path d="M40.2849 46.4313C40.5193 46.573 40.7847 46.6509 41.0562 46.6574C41.6619 46.6574 41.8498 46.2602 41.8442 45.9615C41.8442 45.4569 41.3983 45.2394 40.944 45.2394H40.6803V44.8741H40.9468C41.2889 44.8741 41.7236 44.6914 41.7236 44.2651C41.7236 43.9751 41.547 43.7229 41.1151 43.7229C40.8648 43.7299 40.622 43.8126 40.4167 43.9606L40.2933 43.6069C40.5629 43.4195 40.88 43.3186 41.2048 43.3169C41.8891 43.3169 42.2004 43.7374 42.2004 44.1868C42.1971 44.3813 42.1326 44.5694 42.0167 44.7227C41.9009 44.876 41.7399 44.9861 41.5582 45.0365C41.7735 45.0685 41.9705 45.1796 42.1132 45.3494C42.2558 45.5193 42.3346 45.7365 42.335 45.9615C42.335 46.5414 41.9003 47.0431 41.0646 47.0431C40.747 47.047 40.4342 46.9629 40.1587 46.7995L40.2849 46.4313Z" fill="#F8F9F9"/>
<path d="M42.9097 46.9908V46.7008L43.2799 46.3296C44.1689 45.4597 44.5728 44.9899 44.5784 44.4448C44.5874 44.349 44.5756 44.2524 44.5437 44.162C44.5119 44.0717 44.4609 43.9898 44.3944 43.9225C44.328 43.8552 44.2478 43.8041 44.1597 43.7731C44.0717 43.742 43.978 43.7317 43.8857 43.743C43.6123 43.7535 43.3508 43.861 43.1453 44.0475L42.9966 43.7024C43.2732 43.4652 43.6216 43.3359 43.981 43.3371C44.1197 43.3242 44.2594 43.342 44.3909 43.3893C44.5224 43.4365 44.6427 43.5122 44.7437 43.6112C44.8448 43.7102 44.9243 43.8303 44.977 43.9635C45.0298 44.0967 45.0545 44.24 45.0496 44.3839C45.0496 45.0508 44.5812 45.5873 43.8464 46.318L43.5659 46.5848H45.1533V46.9908H42.9097Z" fill="#F8F9F9"/>
</g>
<defs>
<clipPath id="clip0_5910_2246">
<rect width="123" height="48" fill="white"/>
</clipPath>
</defs>
</svg>
