<svg width="23" height="22" viewBox="0 0 23 22" fill="none" xmlns="http://www.w3.org/2000/svg">
<path d="M11.5632 2.75V19.25C8.35482 19.25 5.9708 15.0513 5.9708 15.0513H3.31315C2.80689 15.0513 2.39648 14.6409 2.39648 14.1346V7.79662C2.39648 7.29034 2.80689 6.87995 3.31315 6.87995H5.9708C5.9708 6.87995 8.35482 2.75 11.5632 2.75Z" fill="#9463FE" stroke="#9463FE" stroke-linejoin="round"/>
<path d="M15.2285 6.875C15.5141 7.13006 15.7731 7.4157 16.0004 7.72695C16.6671 8.63977 17.0618 9.77272 17.0618 11C17.0618 12.2166 16.6739 13.3406 16.0177 14.2493C15.7862 14.5697 15.5214 14.8634 15.2285 15.125" stroke="#9463FE" stroke-linecap="round" stroke-linejoin="round"/>
<path d="M16.2539 18.8768C18.9341 17.277 20.7291 14.3481 20.7291 11C20.7291 7.70389 18.9894 4.8141 16.3782 3.19873" stroke="#9463FE" stroke-linecap="round"/>
</svg>
